Simulation
nRows=16
nColumns=15
endheader
time  TH_x TH_y TH_z SC_y  SC_z  SC_x  AC_y  AC_z  AC_x  GH_y  GH_z  GH_yy  EL_x  PS_y
0.0  0.000000  0.000000  0.000000  -29.42333603968392  -2.8786458236001327  12.65409727096067  54.37733586779291  -6.010210641776659  -11.68278980379683  19.789215989036638  15.126179367410776  2.409379567201421  25.90735856808209  0.000000
0.015  0.000000  0.000000  0.000000  -29.404031347159503  -2.786346652631171  12.784519459263578  54.3779222319442  -5.874928861940364  -11.654797863503516  19.71287920613025  15.304225412661841  2.4305827833658133  25.827289945559055  0.000000
0.03  0.000000  0.000000  0.000000  -29.39346122777976  -2.718316769392516  12.89973556265857  54.376900215620765  -5.770816470132442  -11.633611054909377  19.671755188448262  15.514950121323876  2.3877134651557843  25.73085853273583  0.000000
0.045  0.000000  0.000000  0.000000  -29.38484851096214  -2.6619476381083427  13.004137655816804  54.37591793063819  -5.694160849319929  -11.619735040777906  19.66212591234194  15.75882314038562  2.2844388796052963  25.64504843235164  0.000000
0.06  0.000000  0.000000  0.000000  -29.38030605037283  -2.613260389001674  13.101819685959375  54.374821089363245  -5.641225798783628  -11.611583192864025  19.68491641600808  16.038087591808324  2.1186171094455832  25.56736262567494  0.000000
0.075  0.000000  0.000000  0.000000  -29.377222188852095  -2.5671957237469094  13.195450108019275  54.37238928101222  -5.608457623140181  -11.608893242675563  19.734323204089083  16.352260452597243  1.8947955110646666  25.493944298178235  0.000000
0.09  0.000000  0.000000  0.000000  -29.37536052558058  -2.5201914434481845  13.287132256964213  54.36900018008939  -5.592057891378143  -11.611627761595736  19.804246796056454  16.70084183249242  1.61950321278866  25.422906937694396  0.000000
0.105  0.000000  0.000000  0.000000  -29.376050317668792  -2.4722992200545666  13.3791955493726  54.36420945826593  -5.587779548747022  -11.619288051587606  19.88878821536306  17.083687760645223  1.2987938344480185  25.352624321575206  0.000000
0.12  0.000000  0.000000  0.000000  -29.37931091929731  -2.4232002566001  13.473124907280376  54.35833516494665  -5.592001781250821  -11.631117826349973  19.983814894545013  17.500263518266834  0.9376451756271066  25.28200163509532  0.000000
0.135  0.000000  0.000000  0.000000  -29.3847762980509  -2.3721272862806586  13.569975013306767  54.35159763134568  -5.601785162162617  -11.646476381443911  20.085713856687097  17.94939607979834  0.5408744401010492  25.210284731197103  0.000000
0.15  0.000000  0.000000  0.000000  -29.39267207270833  -2.318743446282176  13.670271975172046  54.344702547261534  -5.614419105432076  -11.664693110323354  20.191171029856648  18.429819491967063  0.11343731697895491  25.137053709049965  0.000000
0.16499999999999998  0.000000  0.000000  0.000000  -29.403345697881857  -2.262718455077498  13.77453385707965  54.33806410128775  -5.627744325112652  -11.684947879054587  20.297669612557193  18.939993794100324  -0.3403125802001157  25.062104467882552  0.000000
0.18  0.000000  0.000000  0.000000  -29.417209138152153  -2.204137519720912  13.883086555644438  54.332448655898844  -5.639915578705415  -11.706694692694434  20.402942843000197  19.478327539632986  -0.8161222588019719  24.985306305004922  0.000000
0.195  0.000000  0.000000  0.000000  -29.434669578910515  -2.1431179894271293  13.996107897606892  54.32845982941069  -5.649327766378444  -11.729423553743702  20.505174003182653  20.043048357802114  -1.3101101814728497  24.906577695080948  0.000000
0.21  0.000000  0.000000  0.000000  -29.456108043458823  -2.07982323509634  14.113600332137842  54.3269376651075  -5.6546193517052865  -11.752740193811405  20.602814444306354  20.63229404855568  -1.818560376092719  24.82589833929384  0.000000
0.22499999999999998  0.000000  0.000000  0.000000  -29.481944581586966  -2.0144945849680216  14.235518198101364  54.328456919675986  -5.6545521768255425  -11.776226451407432  20.694607297095434  21.24410518150147  -2.33804090140864  24.743252680452446  0.000000
